<svg xmlns="http://www.w3.org/2000/svg" viewBox="0 0 500 500"><g id="freepik--Board--inject-3"><rect x="88.82" y="102.87" width="291.99" height="173.05" style="fill:#263238"></rect><rect x="90.47" y="107.79" width="288.69" height="163.21" style="fill:#fff;stroke:#263238;stroke-linecap:round;stroke-linejoin:round"></rect><rect x="85.49" y="99.91" width="296.96" height="9.28" style="fill:#263238"></rect><circle cx="238.09" cy="91.43" r="8.35" style="fill:#fff;stroke:#263238;stroke-linecap:round;stroke-linejoin:round"></circle><path d="M242.49,91.43a4.4,4.4,0,1,1-4.4-4.39A4.4,4.4,0,0,1,242.49,91.43Z" style="fill:#D38C22;stroke:#263238;stroke-miterlimit:10"></path></g><g id="freepik--Graphics--inject-3"><polyline points="142.89 213.78 107.21 213.78 107.21 177.6 167.89 177.6 167.89 213.78 149.68 213.78" style="fill:none;stroke:#263238;stroke-miterlimit:10"></polyline><rect x="155.09" y="231.1" width="48.43" height="28.88" style="fill:none;stroke:#263238;stroke-miterlimit:10"></rect><polyline points="256.97 177.6 263.08 177.6 263.08 213.78 202.4 213.78 202.4 177.6 251.15 177.6" style="fill:none;stroke:#263238;stroke-miterlimit:10"></polyline><polyline points="207.45 124.71 278.67 124.71 278.67 160.9 186.82 160.9 186.82 124.71 200.66 124.71" style="fill:none;stroke:#263238;stroke-miterlimit:10"></polyline><rect x="297.04" y="177.6" width="60.68" height="36.18" style="fill:none;stroke:#263238;stroke-miterlimit:10"></rect><path d="M181.81,142.53s-32.2,4.47-51.12,31.75" style="fill:none;stroke:#263238;stroke-miterlimit:10"></path><line x1="161.21" y1="217.68" x2="165.47" y2="230.12" style="fill:none;stroke:#263238;stroke-miterlimit:10"></line><line x1="205.19" y1="216.56" x2="201.29" y2="228.25" style="fill:none;stroke:#263238;stroke-miterlimit:10"></line><polyline points="160.79 226.02 165.47 230.12 166.64 224.56" style="fill:none;stroke:#263238;stroke-miterlimit:10"></polyline><polyline points="199.38 224.56 201.13 229.24 206.1 226.31" style="fill:none;stroke:#263238;stroke-miterlimit:10"></polyline><polyline points="131.56 168.73 130.69 174.28 136.82 170.48" style="fill:none;stroke:#263238;stroke-miterlimit:10"></polyline><line x1="264.86" y1="194.74" x2="295.26" y2="194.74" style="fill:none;stroke:#263238;stroke-miterlimit:10"></line><polyline points="288.83 190.94 295.56 194.74 289.42 198.54" style="fill:none;stroke:#263238;stroke-miterlimit:10"></polyline><line x1="168.9" y1="194.74" x2="199.3" y2="194.74" style="fill:none;stroke:#263238;stroke-miterlimit:10"></line><polyline points="192.87 190.94 199.59 194.74 193.46 198.54" style="fill:none;stroke:#263238;stroke-miterlimit:10"></polyline><line x1="232.52" y1="163.79" x2="232.52" y2="173.04" style="fill:none;stroke:#263238;stroke-miterlimit:10"></line><polyline points="236.31 166.6 232.51 173.33 228.72 167.19" style="fill:none;stroke:#263238;stroke-miterlimit:10"></polyline><line x1="294.97" y1="205.67" x2="265.73" y2="205.67" style="fill:none;stroke:#263238;stroke-miterlimit:10"></line><polyline points="271.91 201.87 265.45 205.67 271.35 209.47" style="fill:none;stroke:#263238;stroke-miterlimit:10"></polyline><line x1="205.81" y1="135.99" x2="260.77" y2="135.99" style="fill:none;stroke:#263238;stroke-miterlimit:10"></line><line x1="205.81" y1="141.25" x2="260.77" y2="141.25" style="fill:none;stroke:#263238;stroke-miterlimit:10"></line><line x1="205.81" y1="146.51" x2="260.77" y2="146.51" style="fill:none;stroke:#263238;stroke-miterlimit:10"></line><line x1="112.85" y1="190.94" x2="162.26" y2="190.94" style="fill:none;stroke:#263238;stroke-miterlimit:10"></line><line x1="112.85" y1="196.21" x2="162.26" y2="196.21" style="fill:none;stroke:#263238;stroke-miterlimit:10"></line><line x1="112.85" y1="201.47" x2="162.26" y2="201.47" style="fill:none;stroke:#263238;stroke-miterlimit:10"></line><line x1="208.74" y1="190.94" x2="258.14" y2="190.94" style="fill:none;stroke:#263238;stroke-miterlimit:10"></line><line x1="208.74" y1="196.21" x2="258.14" y2="196.21" style="fill:none;stroke:#263238;stroke-miterlimit:10"></line><line x1="208.74" y1="201.47" x2="258.14" y2="201.47" style="fill:none;stroke:#263238;stroke-miterlimit:10"></line><line x1="301.11" y1="190.94" x2="350.51" y2="190.94" style="fill:none;stroke:#263238;stroke-miterlimit:10"></line><line x1="301.11" y1="196.21" x2="350.51" y2="196.21" style="fill:none;stroke:#263238;stroke-miterlimit:10"></line><line x1="301.11" y1="201.47" x2="350.51" y2="201.47" style="fill:none;stroke:#263238;stroke-miterlimit:10"></line><line x1="161.38" y1="240.93" x2="199.09" y2="240.93" style="fill:none;stroke:#263238;stroke-miterlimit:10"></line><line x1="161.38" y1="246.19" x2="199.09" y2="246.19" style="fill:none;stroke:#263238;stroke-miterlimit:10"></line><line x1="161.38" y1="251.46" x2="199.09" y2="251.46" style="fill:none;stroke:#263238;stroke-miterlimit:10"></line><path d="M328.6,140.58a.5.5,0,0,1-.26-.92l.38-.24-.14.08a.5.5,0,0,1-.51-.85l2-1.27-1.75,1a.5.5,0,0,1-.52-.85l3.58-2.34-3.39,2a.5.5,0,0,1-.67-.17.51.51,0,0,1,.15-.68l5.58-3.73-5.44,3.13a.49.49,0,0,1-.66-.16.48.48,0,0,1,.13-.67l8.37-6-8.36,4.83a.5.5,0,0,1-.67-.17.49.49,0,0,1,.14-.67l6-4.16-5.9,3.41A.5.5,0,0,1,326,132a.49.49,0,0,1,.14-.67l3.4-2.29-3.21,1.85a.5.5,0,0,1-.67-.17.49.49,0,0,1,.15-.67l2.19-1.48-2,1.15a.5.5,0,0,1-.54-.83l5.85-4.33-5.79,3.34a.5.5,0,0,1-.55-.83l5.18-4L325,126a.51.51,0,0,1-.67-.16.49.49,0,0,1,.13-.67l2.53-1.87-2.34,1.36a.51.51,0,0,1-.67-.16.5.5,0,0,1,.12-.67l2.07-1.57-1.87,1.08a.49.49,0,0,1-.66-.16.5.5,0,0,1,.1-.67l1-.81-.8.46a.49.49,0,0,1-.62-.1.51.51,0,0,1,0-.63l1.58-2-1.44.83a.5.5,0,0,1-.55,0,.51.51,0,0,1-.19-.51l.15-.61a.54.54,0,0,1-.42-.25.51.51,0,0,1,.19-.68l.72-.42a.5.5,0,0,1,.73.55l-.13.51,2.64-1.52a.5.5,0,0,1,.64.74l-1.57,2,4.73-2.73a.51.51,0,0,1,.66.15.5.5,0,0,1-.11.67l-1,.82,2.5-1.45a.5.5,0,0,1,.55.83l-2.07,1.57,3.41-2a.51.51,0,0,1,.67.16.5.5,0,0,1-.12.67l-2.54,1.87,3.81-2.2a.49.49,0,0,1,.55.82l-5.18,4,6.83-4a.51.51,0,0,1,.67.16.5.5,0,0,1-.12.67l-5.86,4.33,7.22-4.16a.5.5,0,0,1,.67.16.5.5,0,0,1-.14.68l-2.2,1.47,2.84-1.64a.5.5,0,0,1,.53.84l-3.39,2.29,4-2.32a.5.5,0,0,1,.53.84l-6,4.16,6.82-3.94a.5.5,0,0,1,.53.84l-8.37,6,9.32-5.39a.5.5,0,0,1,.67.17.48.48,0,0,1-.14.67l-5.59,3.75,6.07-3.51a.5.5,0,0,1,.52.85l-3.58,2.34,3.83-2.21a.49.49,0,0,1,.67.17.48.48,0,0,1-.15.67l-2,1.28,2.07-1.2a.49.49,0,0,1,.67.17.51.51,0,0,1-.15.68l-.38.24.43-.25a.5.5,0,0,1,.53.84L343.12,133l6-3.47a.49.49,0,0,1,.67.16.5.5,0,0,1-.14.68l-.13.08h0a.5.5,0,0,1,.54.84l-1.12.79,1.06-.6a.49.49,0,0,1,.62.75l-1.9,2.19,1.84-1.06a.48.48,0,0,1,.57.06.5.5,0,0,1,.14.56l-.2.47a.5.5,0,0,1,.49.25.5.5,0,0,1-.18.68l-1.06.61a.49.49,0,0,1-.7-.62l.17-.42-3.15,1.82a.5.5,0,0,1-.62-.76l1.9-2.19L340.63,138a.5.5,0,0,1-.66-.16.48.48,0,0,1,.13-.67l1.12-.8-4.15,2.39a.5.5,0,0,1-.67-.17.49.49,0,0,1,.15-.67l.12-.09-2.77,1.6a.49.49,0,0,1-.66-.16.48.48,0,0,1,.13-.67l5.79-4.07-10.31,5.95A.45.45,0,0,1,328.6,140.58Z" style="fill:#D38C22"></path><path d="M313.19,154.58A20.68,20.68,0,0,1,305.91,139c0-11.8,10.23-21.36,22.85-21.36s22.86,9.56,22.86,21.36-10.23,21.36-22.86,21.36a24.07,24.07,0,0,1-9.61-2" style="fill:none;stroke:#263238;stroke-miterlimit:10"></path><line x1="285.78" y1="134.39" x2="300.21" y2="134.39" style="fill:none;stroke:#263238;stroke-miterlimit:10"></line><line x1="285.78" y1="139.36" x2="300.21" y2="139.36" style="fill:none;stroke:#263238;stroke-miterlimit:10"></line><line x1="285.78" y1="144.34" x2="300.21" y2="144.34" style="fill:none;stroke:#263238;stroke-miterlimit:10"></line><line x1="111.35" y1="219.24" x2="136.73" y2="219.24" style="fill:none;stroke:#263238;stroke-miterlimit:10"></line><line x1="111.35" y1="224.22" x2="136.73" y2="224.22" style="fill:none;stroke:#263238;stroke-miterlimit:10"></line><line x1="106.08" y1="154.54" x2="131.46" y2="154.54" style="fill:none;stroke:#263238;stroke-miterlimit:10"></line><line x1="111.35" y1="229.19" x2="136.73" y2="229.19" style="fill:none;stroke:#263238;stroke-miterlimit:10"></line><line x1="111.35" y1="239.64" x2="136.73" y2="239.64" style="fill:none;stroke:#263238;stroke-miterlimit:10"></line><line x1="111.35" y1="244.62" x2="136.73" y2="244.62" style="fill:none;stroke:#263238;stroke-miterlimit:10"></line><line x1="111.35" y1="249.6" x2="136.73" y2="249.6" style="fill:none;stroke:#263238;stroke-miterlimit:10"></line><polyline points="322.68 118.18 328.85 140.51 351.42 135.36" style="fill:none;stroke:#263238;stroke-miterlimit:10"></polyline><polyline points="106.35 123.9 106.35 148.76 146.27 148.76" style="fill:none;stroke:#263238;stroke-miterlimit:10"></polyline><rect x="110.49" y="127.29" width="8.29" height="21.47" style="fill:#D38C22;stroke:#263238;stroke-miterlimit:10"></rect><rect x="131.58" y="132.18" width="8.29" height="16.57" style="fill:#D38C22;stroke:#263238;stroke-miterlimit:10"></rect><rect x="121.04" y="120.51" width="8.29" height="28.25" style="fill:#D38C22;stroke:#263238;stroke-miterlimit:10"></rect></g><g id="freepik--Clock--inject-3"><circle cx="435.78" cy="155.01" r="36.27" transform="translate(186.2 544.43) rotate(-76.92)" style="fill:#263238;stroke:#263238;stroke-miterlimit:10"></circle><circle cx="435.78" cy="155.01" r="30.81" transform="translate(-25.95 182.22) rotate(-22.95)" style="fill:#fff;stroke:#263238;stroke-miterlimit:10"></circle><polyline points="445.3 135.26 435.78 155.01 449.38 155.01" style="fill:none;stroke:#263238;stroke-miterlimit:10"></polyline><path d="M439.24,155a3.46,3.46,0,1,1-3.46-3.45A3.45,3.45,0,0,1,439.24,155Z" style="fill:#D38C22;stroke:#263238;stroke-miterlimit:10"></path></g><g id="freepik--characters-3--inject-3"><path d="M239.66,248.72,235,241.94s.92-10.9-.12-12.6S217,225.67,216,226.93s2.54,2.4,2.54,2.4-2.4,1.06-2.15,2.27c.37,1.78,3.44,2,3.44,2s-2.44,1.63-2.14,2.69c.24.84,2.68,1.5,2.68,1.5s-2.47,1.12-.45,2.55,3.73,2.91,3.73,2.91-1.4,3,2.39,5.61,10.34,7.36,10.34,7.36Z" style="fill:#fff;stroke:#263238;stroke-linecap:round;stroke-linejoin:round"></path><path d="M216.63,222.39l-3.73-.31,0,1.15,3,1.69A15.37,15.37,0,0,1,216.63,222.39Z" style="fill:#263238;stroke:#263238;stroke-linecap:round;stroke-linejoin:round"></path><path d="M231.29,229.94a1.39,1.39,0,0,1-.49-.07L216,225.2a1.48,1.48,0,1,1,.89-2.82l14.8,4.67a1.48,1.48,0,0,1-.4,2.89Z" style="fill:#fff;stroke:#263238;stroke-linecap:round;stroke-linejoin:round"></path><path d="M239,232.85a2.16,2.16,0,0,1-.66-.1l-7.64-2.41a2,2,0,1,1,1.19-3.76l7.64,2.41a2,2,0,0,1,1.29,2.47A2,2,0,0,1,239,232.85Z" style="fill:#263238;stroke:#263238;stroke-linecap:round;stroke-linejoin:round"></path><path d="M232.84,235.08a55.83,55.83,0,0,0-2.4-5.86c-1.05-1.94-3.07-3.61-3.87-5.56s-2.94,1.07-2.15,2.53,2.58,3.63,2.61,4.62.29,1.72-.85,5-1.77,7,.78,9.62" style="fill:#fff;stroke:#263238;stroke-linecap:round;stroke-linejoin:round"></path><line x1="218.58" y1="229.33" x2="227.03" y2="230.81" style="fill:none;stroke:#263238;stroke-linecap:round;stroke-linejoin:round"></line><path d="M219.87,233.61c1-.28,6.31,2.16,6.31,2.16" style="fill:none;stroke:#263238;stroke-linecap:round;stroke-linejoin:round"></path><line x1="220.41" y1="237.8" x2="224.8" y2="239.27" style="fill:none;stroke:#263238;stroke-linecap:round;stroke-linejoin:round"></line><path d="M298.83,235.69s-2.52-1.49-3.63,2.5-4.37,11-5.81,12.52-15.6,15.54-15.6,15.54-6.08-4.77-7.51-3a5.73,5.73,0,0,1-2.41,2l-24.28-19.05-9,13.61s33,30.16,35.76,31.07,4.71.6,5.69.08,19.1-14.16,19.1-14.16,11.05-35.66,12-36.92S298.83,235.69,298.83,235.69Z" style="fill:#D38C22;stroke:#263238;stroke-linecap:round;stroke-linejoin:round"></path><path d="M266.22,266.33s4.92,5.68,4.92,12.87" style="fill:#D38C22;stroke:#263238;stroke-linecap:round;stroke-linejoin:round"></path><path d="M274.17,268.6s1.51,3.79-.76,12.11" style="fill:#D38C22;stroke:#263238;stroke-linecap:round;stroke-linejoin:round"></path><path d="M309.65,191.68s-10.72-7-9.45-13.65,25.31-12,39.13-7.51,16.63,25.17,14.81,37.93-2.92,41.88-2.92,41.88l-46.89,1.38s4.37-34.1,5.28-44.88S309.65,191.68,309.65,191.68Z" style="fill:#263238;stroke:#263238;stroke-linecap:round;stroke-linejoin:round"></path><path d="M285.65,379.43c1,10.19,2.9,55.09,4,61.74H338.4c-.1-7.66-.23-59.4.87-63.63,1.39-5.29,3.34-22.93,1.19-33.05s-4.76-15-4.76-15l-50.6-.05.15,4.15S284.3,365,285.65,379.43Z" style="fill:#263238;stroke:#263238;stroke-linecap:round;stroke-linejoin:round"></path><path d="M296.47,348.87c2,1.37,4,2.35,4,4.33,1,17.78,4.94,67.72,6.33,85.71" style="fill:none;stroke:#4c4c4c;stroke-linecap:round;stroke-linejoin:round"></path><path d="M311,235l24.74.92s-19.86,30.57-19.69,47.37,3.5,51.62,3.5,51.62-10.88,8.61-22.13,7c-1.22-.18-1.87-10.26-1.87-10.26s-.72,9.79-1.55,9.64c-6.3-1.13-8.75-7.64-8.75-7.64L286.56,300s0-22.07,2.46-28.41,19.08-34.5,19.08-34.5Z" style="fill:#fff;stroke:#263238;stroke-linecap:round;stroke-linejoin:round"></path><path d="M310,254.48s-7.65,15.9-10.45,25.22-4,51.91-4,51.91" style="fill:none;stroke:#263238;stroke-linecap:round;stroke-linejoin:round"></path><path d="M332.76,235.68s-17.35,25.88-20.7,35.2-5.59,45-5.15,60.12,5.22,31.8,5.22,31.8a93.79,93.79,0,0,0,42.09-2.89s-6.06-26.83-9-35.64a116.85,116.85,0,0,1-4.14-17.67S361,243.08,361,242.1s-.39-2-2.38-2.57S332.76,235.68,332.76,235.68Z" style="fill:#D38C22;stroke:#263238;stroke-linecap:round;stroke-linejoin:round"></path><polyline points="316.86 334.68 342.61 332.62 342.95 336.74 331.97 338.11" style="fill:#D38C22;stroke:#263238;stroke-linecap:round;stroke-linejoin:round"></polyline><path d="M310.77,238.3s-20.67,36.53-21.13,43.13-3.52,37-5.22,46.61-9.05,28.27-9.05,28.27-1.89-8.18-1.34-11.82,8.51-24.3,9.36-28.94,2-21.15,1.8-28.39-.7-12.5.8-17.81,12.84-33.66,12.84-33.66l16.45-.81Z" style="fill:#D38C22;stroke:#263238;stroke-linecap:round;stroke-linejoin:round"></path><polygon points="306.29 235.28 302.85 251.03 311.69 244.17 306.29 235.28" style="fill:#fff;stroke:#263238;stroke-linecap:round;stroke-linejoin:round"></polygon><polygon points="316.82 227.64 306.29 235.28 310.26 245.67 310.04 254.48 321.98 236.77 316.82 227.64" style="fill:#fff;stroke:#263238;stroke-linecap:round;stroke-linejoin:round"></polygon><path d="M316.21,223.5s-2,14.73-2.63,18.65S310,254.48,310,254.48s18.77-18.15,19.7-19.65,4.17-16,4.17-16S321.83,223.34,316.21,223.5Z" style="fill:#fff;stroke:#263238;stroke-linecap:round;stroke-linejoin:round"></path><path d="M315.64,227.63c2.56,1.6,4.55,1.6,7.51,1.14s7-3.24,9.72-5.43c.6-2.55,1-4.51,1-4.51s-12.08,4.51-17.7,4.67C316.21,223.5,316,225.22,315.64,227.63Z" style="fill:#263238;stroke:#263238;stroke-linecap:round;stroke-linejoin:round"></path><path d="M322.22,178.85l-13.85,10.91s-1.4,10.55-1.92,17.9A19.06,19.06,0,0,0,313,223.84c4,3.55,6.22,3.73,10.11,3.12s9.63-5.17,11.77-7.19,6.12-8,6.12-8,3.19.64,4.13-.85a10.82,10.82,0,0,0,1.15-2.24s-13.17-7.43-18.58-16.8S322.22,178.85,322.22,178.85Z" style="fill:#fff;stroke:#263238;stroke-linecap:round;stroke-linejoin:round"></path><path d="M317.91,198.28a14.3,14.3,0,0,1-1.34,4.44c-.93,1.49-4.57,2.33-2.57,4a8.82,8.82,0,0,0,5.18,1.56" style="fill:none;stroke:#263238;stroke-linecap:round;stroke-linejoin:round"></path><path d="M313.89,211.11s7.42,3.2,12.19-1.1" style="fill:none;stroke:#263238;stroke-linecap:round;stroke-linejoin:round"></path><path d="M316.37,212.26s1.1,4.12,3.52,3.31,4.52-4,4.52-4A59.26,59.26,0,0,1,316.37,212.26Z" style="fill:none;stroke:#263238;stroke-linecap:round;stroke-linejoin:round"></path><path d="M327.25,200.2c0,1.08-.43,2-1,2s-1.12-.84-1.15-1.92.43-2,1-2S327.22,199.13,327.25,200.2Z" style="fill:#263238"></path><path d="M315.6,198.84c0,1.08-.43,2-1,2s-1.12-.84-1.15-1.92.43-2,1-2S315.57,197.76,315.6,198.84Z" style="fill:#263238"></path><path d="M311.68,194.31a3.84,3.84,0,0,1,5.63.08" style="fill:none;stroke:#263238;stroke-linecap:round;stroke-linejoin:round"></path><path d="M322.94,195s5.56-2.11,7.9,2.7" style="fill:none;stroke:#263238;stroke-linecap:round;stroke-linejoin:round"></path><polygon points="319.86 239.53 310.04 254.48 324.47 246.72 319.86 239.53" style="fill:#fff;stroke:#263238;stroke-linecap:round;stroke-linejoin:round"></polygon><polygon points="336.34 226.57 319.86 239.53 324.66 253.07 340.49 234.76 336.34 226.57" style="fill:#fff;stroke:#263238;stroke-linecap:round;stroke-linejoin:round"></polygon><path d="M316.31,303.38A24.15,24.15,0,0,1,310,300.6c-3.69-2.2-7.62-1.43-10.91-1.33s-5.58.83-5.21,2.13,3.66,1.21,4.65,1.18,2.68,1.57,2.68,1.57l-8.23,2s-2.58,1.73-.55,3.64,2.4,1.48,2.4,1.48,3.11,4.85,6.41,5.08,16.71-3.13,16.71-3.13Z" style="fill:#fff;stroke:#263238;stroke-linecap:round;stroke-linejoin:round"></path><path d="M339.63,265.58c.39,2,2.52,31.43,2.52,31.43L315,303.41l1.45,15.45s48.59-5.72,49.49-8.71-2.27-54.63-2-57.6,4.23-13-7.63-13" style="fill:#D38C22;stroke:#263238;stroke-linecap:round;stroke-linejoin:round"></path><path d="M344.17,260.66s7.94-10.22,16.65-9.84" style="fill:#D38C22;stroke:#263238;stroke-linecap:round;stroke-linejoin:round"></path><path d="M344.17,264.44s6.81-3.78,13.62-3.78" style="fill:#D38C22;stroke:#263238;stroke-linecap:round;stroke-linejoin:round"></path></g></svg>